<svg enable-background="new 0 0 100 100" height="100" viewBox="0 0 100 100" width="100" xmlns="http://www.w3.org/2000/svg"><path d="m89.5 27.9h-21.6v-6.3c0-5.2-4.2-9.4-9.4-9.4h-16.9c-5.2 0-9.4 4.2-9.4 9.4v6.3h-21.7c-4.7 0-8.6 3.9-8.6 8.6v42.7c0 4.7 3.9 8.6 8.6 8.6h79c4.7 0 8.6-3.9 8.6-8.6v-42.7c0-4.7-3.9-8.6-8.6-8.6zm-51.9-6.3c0-2.2 1.8-3.9 3.9-3.9h16.9c2.2 0 3.9 1.8 3.9 3.9v6.3h-24.7zm-27.1 11.8h78.9c1.7 0 3.1 1.4 3.1 3.1v9.4l-42.6 7-42.6-7v-9.4c.1-1.7 1.5-3.1 3.2-3.1zm79 48.9h-79c-1.7 0-3.1-1.4-3.1-3.1v-27.7l42.6 7 42.6-7v27.8c0 1.6-1.4 3-3.1 3z" fill="#005ad5"/></svg>